<svg width="536" height="536" viewBox="0 0 536 536" fill="none" xmlns="http://www.w3.org/2000/svg">
<path d="M523.249 267.926C523.249 277.335 516.742 286.718 503.948 295.598C491.214 304.437 472.658 312.477 449.547 319.262C403.352 332.824 339.416 341.24 268.71 341.24C198.004 341.24 134.068 332.824 87.8728 319.262C64.7621 312.477 46.2053 304.437 33.4714 295.598C20.678 286.718 14.1709 277.335 14.1709 267.926C14.1709 258.517 20.678 249.133 33.4714 240.253C46.2053 231.414 64.7621 223.374 87.8728 216.589C134.068 203.028 198.004 194.611 268.71 194.611C339.416 194.611 403.352 203.028 449.547 216.589C472.658 223.374 491.214 231.414 503.948 240.253C516.742 249.133 523.249 258.517 523.249 267.926Z" stroke="#333333" stroke-width="4"/>
<path d="M514.575 333.805C512.14 342.894 503.426 350.273 488.77 355.539C474.183 360.781 454.177 363.744 430.098 364.317C381.967 365.46 318.031 357.042 249.734 338.742C181.438 320.442 121.859 295.764 80.7477 270.708C60.1805 258.173 44.337 245.604 34.3245 233.771C24.2653 221.883 20.4086 211.135 22.8439 202.046C25.2791 192.958 33.9932 185.578 48.649 180.312C63.2366 175.07 83.242 172.107 107.321 171.535C155.452 170.391 219.388 178.809 287.685 197.109C355.981 215.41 415.561 240.087 456.672 265.143C477.239 277.678 493.082 290.247 503.095 302.08C513.154 313.968 517.011 324.717 514.575 333.805Z" stroke="#333333" stroke-width="4"/>
<path d="M487.727 395.696C483.023 403.844 472.695 408.717 457.176 410.011C441.729 411.298 421.638 408.983 398.231 403.303C351.444 391.951 291.866 367.271 230.633 331.918C169.4 296.565 118.238 257.309 85.0124 222.466C68.3904 205.035 56.3398 188.794 49.7312 174.772C43.0917 160.686 42.1482 149.306 46.8528 141.157C51.5573 133.008 61.8845 128.136 77.4039 126.842C92.851 125.555 112.942 127.87 136.349 133.55C183.136 144.902 242.714 169.582 303.947 204.935C365.18 240.287 416.342 279.544 449.567 314.387C466.19 331.818 478.24 348.059 484.849 362.08C491.488 376.167 492.432 387.547 487.727 395.696Z" stroke="#333333" stroke-width="4"/>
<path d="M447.211 447.211C440.557 453.864 429.321 455.898 413.995 453.131C398.741 450.376 379.935 442.94 358.795 431.396C316.541 408.32 265.38 369.062 215.383 319.065C165.387 269.069 126.128 217.908 103.053 175.653C91.509 154.514 84.0726 135.707 81.3181 120.453C78.5508 105.128 80.5849 93.8914 87.2381 87.2382C93.8914 80.5849 105.128 78.5508 120.453 81.3182C135.707 84.0726 154.514 91.509 175.653 103.053C217.908 126.128 269.069 165.387 319.065 215.383C369.062 265.38 408.32 316.541 431.396 358.795C442.94 379.935 450.376 398.741 453.131 413.995C455.898 429.321 453.864 440.557 447.211 447.211Z" stroke="#333333" stroke-width="4"/>
<path d="M394.494 487.662C386.345 492.366 374.965 491.423 360.878 484.783C346.857 478.175 330.615 466.124 313.184 449.502C278.342 416.277 239.085 365.115 203.732 303.882C168.379 242.648 143.7 183.07 132.347 136.283C126.668 112.876 124.352 92.7855 125.64 77.3384C126.933 61.819 131.806 51.4919 139.955 46.7873C148.103 42.0828 159.483 43.0262 173.57 49.6657C187.592 56.2743 203.833 68.3249 221.264 84.947C256.106 118.172 295.363 169.334 330.716 230.567C366.069 291.8 390.748 351.379 402.101 398.166C407.781 421.573 410.096 441.663 408.809 457.111C407.515 472.63 402.642 482.957 394.494 487.662Z" stroke="#333333" stroke-width="4"/>
<path d="M335.874 513.156C326.786 515.591 316.038 511.735 304.149 501.675C292.316 491.663 279.747 475.819 267.212 455.252C242.156 414.141 217.479 354.562 199.179 286.265C180.879 217.969 172.46 154.033 173.604 105.902C174.176 81.8227 177.139 61.8173 182.381 47.2297C187.647 32.5739 195.027 23.8599 204.115 21.4246C213.204 18.9893 223.952 22.846 235.841 32.9052C247.674 42.9177 260.243 58.7612 272.778 79.3284C297.834 120.439 322.511 180.019 340.811 248.315C359.111 316.612 367.53 380.548 366.386 428.679C365.814 452.758 362.85 472.763 357.609 487.351C352.343 502.007 344.963 510.721 335.874 513.156Z" stroke="#333333" stroke-width="4"/>
<path d="M267.425 523.017C258.016 523.017 248.632 516.51 239.752 503.717C230.914 490.983 222.874 472.426 216.089 449.315C202.527 403.12 194.111 339.184 194.111 268.478C194.111 197.773 202.527 133.836 216.089 87.6414C222.874 64.5307 230.914 45.9739 239.752 33.24C248.632 20.4465 258.016 13.9395 267.425 13.9395C276.834 13.9395 286.218 20.4465 295.098 33.24C303.936 45.9739 311.976 64.5307 318.761 87.6414C332.323 133.836 340.739 197.773 340.739 268.478C340.739 339.184 332.323 403.12 318.761 449.315C311.976 472.426 303.936 490.983 295.098 503.717C286.218 516.51 276.834 523.017 267.425 523.017Z" stroke="#333333" stroke-width="4"/>
<path d="M202.045 514.576C192.957 512.141 185.577 503.426 180.311 488.771C175.069 474.183 172.106 454.178 171.534 430.098C170.39 381.967 178.809 318.032 197.109 249.735C215.409 181.438 240.086 121.859 265.142 80.7481C277.677 60.181 290.246 44.3374 302.079 34.325C313.968 24.2658 324.716 20.4091 333.805 22.8444C342.893 25.2796 350.273 33.9936 355.539 48.6494C360.781 63.237 363.744 83.2425 364.316 107.322C365.46 155.453 357.041 219.389 338.741 287.685C320.441 355.982 295.764 415.561 270.708 456.672C258.173 477.239 245.604 493.083 233.771 503.095C221.882 513.154 211.134 517.011 202.045 514.576Z" stroke="#333333" stroke-width="4"/>
<path d="M140.156 488.916C132.008 484.211 127.135 473.884 125.841 458.365C124.554 442.918 126.869 422.827 132.549 399.42C143.901 352.633 168.581 293.055 203.934 231.822C239.287 170.588 278.543 119.426 313.386 86.2011C330.817 69.5791 347.058 57.5285 361.08 50.9199C375.167 44.2804 386.547 43.3369 394.695 48.0415C402.844 52.746 407.717 63.0732 409.01 78.5925C410.298 94.0397 407.982 114.13 402.303 137.537C390.95 184.324 366.271 243.903 330.918 305.136C295.565 366.369 256.308 417.531 221.466 450.756C204.034 467.378 187.793 479.429 173.772 486.037C159.685 492.677 148.305 493.62 140.156 488.916Z" stroke="#333333" stroke-width="4"/>
<path d="M88.4398 447.277C81.7866 440.624 79.7525 429.387 82.5198 414.062C85.2742 398.808 92.7106 380.001 104.255 358.862C127.33 316.607 166.588 265.446 216.585 215.45C266.582 165.453 317.742 126.195 359.997 103.12C381.136 91.5754 399.943 84.139 415.197 81.3846C430.522 78.6173 441.759 80.6514 448.412 87.3046C455.065 93.9578 457.099 105.194 454.332 120.52C451.578 135.774 444.141 154.581 432.597 175.72C409.522 217.974 370.264 269.135 320.267 319.132C270.27 369.128 219.11 408.387 176.855 431.462C155.716 443.006 136.909 450.443 121.655 453.197C106.33 455.964 95.093 453.93 88.4398 447.277Z" stroke="#333333" stroke-width="4"/>
<path d="M46.7871 394.494C42.0825 386.346 43.026 374.966 49.6655 360.879C56.2741 346.857 68.3247 330.616 84.9467 313.185C118.172 278.342 169.334 239.086 230.567 203.733C291.8 168.38 351.379 143.7 398.166 132.348C421.572 126.668 441.663 124.353 457.11 125.64C472.63 126.934 482.957 131.807 487.661 139.955C492.366 148.104 491.422 159.484 484.783 173.571C478.174 187.592 466.124 203.834 449.502 221.265C416.277 256.107 365.114 295.364 303.881 330.717C242.648 366.07 183.07 390.749 136.283 402.102C112.876 407.781 92.7853 410.097 77.3381 408.809C61.8188 407.516 51.4916 402.643 46.7871 394.494Z" stroke="#333333" stroke-width="4"/>
<path d="M21.4246 334.306C18.9893 325.218 22.846 314.47 32.9052 302.581C42.9176 290.748 58.7612 278.179 79.3283 265.644C120.439 240.588 180.019 215.911 248.315 197.611C316.612 179.311 380.548 170.892 428.679 172.036C452.758 172.608 472.763 175.571 487.351 180.813C502.007 186.079 510.721 193.459 513.156 202.547C515.591 211.636 511.735 222.384 501.675 234.272C491.663 246.106 475.819 258.675 455.252 271.21C414.141 296.266 354.562 320.943 286.265 339.243C217.969 357.543 154.033 365.961 105.902 364.818C81.8227 364.246 61.8172 361.282 47.2296 356.041C32.5738 350.775 23.8598 343.395 21.4246 334.306Z" stroke="#333333" stroke-width="4"/>
</svg>
